<svg viewBox="0 0 400 400" xmlns="http://www.w3.org/2000/svg">
  <defs>
    <pattern id="batik-dots" x="0" y="0" width="40" height="40" patternUnits="userSpaceOnUse">
      <circle cx="20" cy="20" r="8" fill="black"/>
      <circle cx="20" cy="20" r="5" fill="white"/>
    </pattern>
    <pattern id="batik-lines" x="0" y="0" width="20" height="20" patternUnits="userSpaceOnUse">
      <line x1="0" y1="0" x2="20" y2="20" stroke="black" stroke-width="2"/>
      <line x1="20" y1="0" x2="0" y2="20" stroke="black" stroke-width="2"/>
    </pattern>
  </defs>
  
  <!-- Base background -->
  <rect width="400" height="400" fill="white"/>
  
  <!-- Batik pattern sections -->
  <g opacity="0.8">
    <!-- Central motif - geometric -->
    <rect x="50" y="50" width="300" height="300" fill="url(#batik-dots)"/>
    
    <!-- Borders -->
    <rect x="0" y="0" width="400" height="50" fill="url(#batik-lines)"/>
    <rect x="0" y="350" width="400" height="50" fill="url(#batik-lines)"/>
    <rect x="0" y="0" width="50" height="400" fill="url(#batik-lines)"/>
    <rect x="350" y="0" width="50" height="400" fill="url(#batik-lines)"/>
    
    <!-- Corner accents -->
    <circle cx="20" cy="20" r="15" fill="black" opacity="0.6"/>
    <circle cx="380" cy="20" r="15" fill="black" opacity="0.6"/>
    <circle cx="20" cy="380" r="15" fill="black" opacity="0.6"/>
    <circle cx="380" cy="380" r="15" fill="black" opacity="0.6"/>
    
    <!-- Central diamond motif -->
    <path d="M 200 80 L 280 160 L 200 240 L 120 160 Z" fill="none" stroke="black" stroke-width="2"/>
    <path d="M 200 100 L 260 160 L 200 220 L 140 160 Z" fill="none" stroke="black" stroke-width="1.5"/>
    
    <!-- Decorative squares -->
    <rect x="160" y="160" width="80" height="80" fill="none" stroke="black" stroke-width="2"/>
    <rect x="170" y="170" width="60" height="60" fill="none" stroke="black" stroke-width="1"/>
    
    <!-- Scattered details -->
    <circle cx="100" cy="100" r="3" fill="black"/>
    <circle cx="300" cy="100" r="3" fill="black"/>
    <circle cx="100" cy="300" r="3" fill="black"/>
    <circle cx="300" cy="300" r="3" fill="black"/>
  </g>
</svg>